<?xml version="1.0" encoding="utf-8"?>
<!-- Generator: Adobe Illustrator 24.0.1, SVG Export Plug-In . SVG Version: 6.00 Build 0)  -->
<svg version="1.1" id="Calque_1" xmlns="http://www.w3.org/2000/svg" xmlns:xlink="http://www.w3.org/1999/xlink" x="0px" y="0px"
	 viewBox="0 0 1366 768" style="enable-background:new 0 0 1366 768;" xml:space="preserve">
<style type="text/css">
	.st0{fill:#FF8931;}
	.st1{fill:#E24F14;}
</style>
<path class="st0" d="M40.6,343.9c-5.7-12.5-72.7-165.7-4.4-251.3C132.5-28,437,60.7,463.5,177.3c16,70.4-68.2,155.8-143.8,191.9
	C182.4,434.7,48.7,349.3,40.6,343.9z"/>
<path class="st0" d="M1258.8,432c-12,4.2-158.1,53.2-231.2-16.6c-102.9-98.3,3.5-370.7,112.8-385.5c65.9-8.9,137.5,75.4,164.5,147.8
	C1353.7,309.1,1264.4,424.9,1258.8,432z"/>
<path class="st1" d="M485,0h426c0,0-110,42-199,42S485,0,485,0z"/>
</svg>
