<?xml version="1.0" encoding="utf-8"?>
<!-- Generator: Adobe Illustrator 24.0.1, SVG Export Plug-In . SVG Version: 6.00 Build 0)  -->
<svg version="1.1" xmlns="http://www.w3.org/2000/svg" xmlns:xlink="http://www.w3.org/1999/xlink" x="0px" y="0px"
	 viewBox="0 0 500 500" style="enable-background:new 0 0 500 500;" xml:space="preserve">
<style type="text/css">
	.st0{fill:#FCFFFE;}
	.st1{fill:none;}
	.st2{fill:none;stroke:#FCFFFE;stroke-miterlimit:10;}
	.st3{display:none;}
	.st4{display:inline;fill:none;stroke:#EEEEEE;stroke-miterlimit:10;}
	.st5{display:inline;}
	.st6{fill:#EEEEEE;}
	.st7{fill:none;stroke:#FCFFFE;stroke-width:6;stroke-miterlimit:10;}
	.st8{fill:none;stroke:#FCFFFE;stroke-width:4;stroke-miterlimit:10;}
	.st9{fill:none;stroke:#FCFFFE;stroke-width:3;stroke-miterlimit:10;}
</style>
<g id="Calque_2">
	<path class="st0" d="M103.45,259.07c0.02,0,0.04,0,0.07,0.01c1.76,0.32,3.51,0.65,5.27,0.97c0.09,0.02,0.18,0.05,0.27,0.08
		c0.11,0,0.22,0,0.33,0.02c2.42,0.32,4.78,0.93,7.17,1.44c0.2,0.01,0.41,0.02,0.6,0.05c0.38,0.06,0.75,0.14,1.13,0.22
		c0.83,0.07,1.66,0.19,2.45,0.42c0.02,0,0.05,0.01,0.07,0.01c0.87,0.08,1.73,0.22,2.59,0.36c0.07,0.01,0.14,0.04,0.21,0.06
		c0.31,0.02,0.62,0.07,0.94,0.17c0.16,0.03,0.31,0.06,0.47,0.09c0.09,0.01,0.18,0.02,0.27,0.03c0.41-0.01,0.83,0.03,1.24,0.16
		c0,0,0,0,0,0c0.28,0.02,0.57,0.06,0.85,0.14c0.04,0,0.07,0,0.11,0.01c0.42-0.01,0.85,0.04,1.27,0.17c0.19,0.04,0.38,0.08,0.57,0.12
		c0.06,0.02,0.11,0.04,0.16,0.06c0.19,0.02,0.37,0.05,0.55,0.09c0.27,0,0.53,0.02,0.8,0.08h0.07c0.39,0,0.77,0.05,1.14,0.14
		c0.51-0.05,1.02,0,1.53,0.16c0.18,0.03,0.36,0.06,0.54,0.09c0.28,0.03,0.56,0.07,0.83,0.15c0.02,0.01,0.05,0.02,0.07,0.02
		c0.34,0.01,0.68,0.07,1.02,0.18c0.05,0.01,0.1,0.02,0.15,0.03c0.3,0,0.59,0.04,0.89,0.11c0.03,0,0.06,0.01,0.1,0.01
		c0.42-0.01,0.83,0.03,1.25,0.16c0.05,0,0.09-0.01,0.14,0c0.76,0.01,1.51,0.2,2.26,0.3c0.01,0,0.02,0.01,0.03,0.01
		c0.21,0.03,0.42,0.05,0.62,0.09h0.01c0.52,0,1.02,0.09,1.5,0.24c0.04,0.01,0.08,0,0.11,0.01c0.16,0.01,0.31,0.01,0.47,0.03
		c0.01,0,0.02,0,0.03,0c0.2,0,0.4,0.04,0.61,0.04c0.3,0,0.59,0.04,0.87,0.09c0.16,0.01,0.33,0.02,0.49,0.04
		c0.39,0,0.79,0.05,1.18,0.17c0.06,0.01,0.12,0.02,0.18,0.04c0.11,0.01,0.23,0.02,0.35,0.03c0.36,0.01,0.73,0.06,1.09,0.12
		c0.33,0,0.66,0.04,0.99,0.13c0.23,0.01,0.47,0.02,0.7,0.07c0.38,0,0.77,0.05,1.15,0.18c0.05,0.01,0.09,0.02,0.14,0.03
		c0.4,0.04,0.79,0.1,1.18,0.19c0.35,0.05,0.69,0.11,1.03,0.18c0.06,0.02,0.11,0.04,0.16,0.06c0.17,0.02,0.31,0.04,0.42,0.06
		c0.13,0.02,0.27,0.02,0.4,0.04c0.24,0.02,0.49,0.03,0.74,0.03c0.25,0,0.5,0.02,0.74,0.06c0.49,0.02,0.97,0.08,1.44,0.19
		c0,0,0.01,0,0.01,0c0.32,0,0.64,0.04,0.96,0.13c0.1,0,0.19-0.01,0.29,0c0.04,0,0.08,0,0.13,0c0.47,0.01,0.96,0.05,1.41,0.19
		c0,0,0.01,0,0.01,0c0.06,0.01,0.11,0.04,0.16,0.06c0.18,0.02,0.35,0.03,0.53,0.07c0.03,0,0.07,0.02,0.1,0.02
		c0.2,0.02,0.37,0.07,0.56,0.1c0.09,0.01,0.17,0.03,0.25,0.05c0.07,0.02,0.16,0.02,0.23,0.04c0.03,0,0.07,0,0.1,0.01
		c0.29-0.01,0.58,0,0.87,0.05c0.37-0.01,0.73,0.01,1.1,0.1c0.29,0.03,0.7,0.08,0.97,0.13c0.07,0.01,0.14,0.01,0.22,0.03
		c0.35,0,0.7,0.05,1.06,0.15c0.09,0.01,0.18,0,0.27,0.01c0.01,0,0.02,0,0.02,0c0.07,0,0.14-0.01,0.21-0.01
		c0.24,0,0.48,0.02,0.72,0.05c0.08,0,0.16-0.01,0.25-0.01c0.39,0,0.76,0.07,1.15,0.12c0.11,0.01,0.22,0.03,0.34,0.04
		c0.01,0,0.01,0,0.02,0c0.05,0,0.09,0,0.13,0.01c-0.08-0.01,0.53,0.05,1.01,0.12c0.04,0,0.08,0.01,0.13,0.01
		c0.12-0.01,0.23-0.02,0.35-0.02c0.22,0,0.44,0.01,0.65,0.04c0.01,0,0.02,0,0.03,0.01c0.2,0.02,0.39,0.06,0.58,0.1
		c0.13-0.01,0.26-0.02,0.4-0.02c0.09,0,0.17,0.01,0.25,0.01c0.11,0,0.22,0.01,0.32,0.02c0.02,0,0.04,0.01,0.05,0.01
		c0.2,0.02,0.4,0.03,0.6,0.08c0.15,0.02,0.3,0.04,0.45,0.07c0.34,0.02,0.67,0.07,0.98,0.18c0.3,0.03,0.59,0.07,0.87,0.14
		c0.03,0,0.05,0.01,0.08,0.01c0.08,0.01,0.16,0.01,0.24,0.02c0.04,0,0.08,0,0.12,0h0.89c0.13,0,0.25,0.02,0.38,0.03
		c0.19-0.02,0.39-0.03,0.59-0.03h0.28c0.23,0,0.45,0.02,0.67,0.05c0.31,0,0.62,0.04,0.93,0.12c0.35,0,0.7,0.04,1.04,0.14
		c0.26,0.03,0.53,0.07,0.79,0.16c0.04,0.01,0.08,0.02,0.13,0.02c0.05,0.01,0.11,0.02,0.16,0.02c0.31,0.02,0.61,0.06,0.88,0.13
		c0.02,0,0.03,0,0.05,0.01c0.02,0,0.03,0,0.05,0c0.33,0,0.64,0.04,0.95,0.1c0.1,0.01,0.21,0.01,0.31,0.02h0.2
		c0.16,0,0.32,0.02,0.47,0.03c0.12,0.01,0.23,0,0.35,0.01c0.02,0,0.04,0,0.05,0c0.1,0,0.2-0.01,0.3-0.01c0.02,0,0.03,0,0.05,0
		c0.01,0,0.02,0,0.03,0c0.2,0.02,0.39,0.05,0.59,0.08c0.02,0,0.04,0,0.07,0c0.43,0.04,0.87,0.04,1.3,0.08c0.24,0,0.47,0.02,0.7,0.05
		c0.28-0.01,0.57-0.01,0.85,0.04c0.09,0,0.17,0.02,0.26,0.03h0.13c0.35,0,0.69,0.05,1.03,0.12c0.42,0.04,0.84,0.1,1.22,0.16
		c0.19,0.02,0.38,0.05,0.56,0.08h0.07c0.03,0,0.05,0,0.08,0.01c0.07,0,0.14-0.01,0.21-0.01h0.32c0.04,0,0.09,0.01,0.13,0.01
		c0.12-0.01,0.24-0.01,0.36-0.01h0.85c0.24,0,0.47,0.02,0.7,0.05c0.25-0.04,0.5-0.06,0.76-0.05h0.2c0.01,0,0.03,0,0.04,0
		c0.04,0,0.08,0,0.12,0c0.36,0,0.73,0.04,1.09,0.09c0.34,0,0.67,0.03,1.01,0.11c0.31,0,0.62,0.04,0.94,0.12c0.01,0,0.01,0,0.02,0
		c0.33,0,0.65,0.03,0.98,0.11c0.04,0,0.07,0,0.11,0h0.08c0.08,0,0.15,0.01,0.23,0.02c0.07,0,0.14-0.02,0.21-0.02
		c0.33,0,0.64,0.03,0.93,0.08c0.23-0.03,0.45-0.05,0.69-0.04h0.04c0.01,0,0.03,0,0.04,0c0.04,0,0.08,0,0.12,0
		c0.09,0,0.17,0.02,0.25,0.03c0.09,0.01,0.18,0.01,0.27,0.02c0.37,0.01,0.74,0.06,1.11,0.12c0.26-0.01,0.53,0.01,0.79,0.06
		c0.25,0.01,0.49,0.05,0.72,0.1c0.15,0.01,0.3,0.02,0.45,0.05c0.17,0.02,0.35,0.06,0.52,0.11c0.04,0,0.07,0.01,0.11,0.01h0.15
		c0.21,0,0.41,0.02,0.61,0.04h0.08c0.03,0,0.06,0.01,0.1,0.01c0.09,0,0.18-0.01,0.27-0.01h0.65c0.03,0,0.05,0,0.08,0.01
		c0.07,0,0.14-0.01,0.21-0.01h0.2c0.08,0,0.15,0.01,0.23,0.02c0.07,0,0.14-0.02,0.21-0.02c0.32,0,0.61,0.03,0.9,0.08
		c0.44-0.15,0.89-0.22,1.37-0.2c0.36,0,0.73,0.05,1.09,0.1c0.3-0.01,0.6,0.01,0.9,0.07c0.24,0.01,0.48,0.03,0.73,0.08
		c0.38,0,0.76,0.04,1.14,0.16c0.02,0,0.04,0.01,0.07,0.01c0.21,0.01,0.44,0.03,0.66,0.07c0.17,0.02,0.34,0.02,0.51,0.05
		c0.02,0,0.04,0,0.05,0c0.13,0.01,0.27,0.03,0.4,0.04c0.03,0,0.06,0,0.09,0h0.57c0.23,0,0.45,0.02,0.67,0.04
		c0.06,0,0.12-0.01,0.18,0h0.81c0.23,0,0.46,0.02,0.68,0.05c0.26,0.01,0.52,0.03,0.77,0.07c0.04,0,0.08,0,0.12,0.01
		c0.07,0,0.14-0.01,0.21-0.01h0.49c0.22,0,0.44,0.02,0.65,0.04c0.04,0,0.08,0,0.12,0c0.18,0,0.35,0.04,0.53,0.04
		c0.08,0,0.16,0.01,0.24,0.02c0.17-0.02,0.35-0.02,0.53-0.02c0.27,0,0.54,0.02,0.81,0.05c0.26-0.01,0.53,0,0.79,0.05
		c0,0,0.01,0,0.01,0c0.07,0,0.14-0.02,0.22-0.02c0.01,0,0.03,0,0.04,0c0.23,0,0.45,0.02,0.66,0.04h0.43c0.21,0,0.41,0.02,0.61,0.04
		h0.12c0.01,0,0.03,0,0.04,0c0.04,0,0.08,0,0.12,0h0.85c0.25,0,0.5,0.02,0.74,0.06c0.13,0.02,0.32,0.04,0.53,0.07
		c0.02,0,0.03,0,0.05,0c0.03,0,0.05,0,0.08,0.01c0.14,0.01,0.28,0.01,0.42,0.03c0.21-0.02,0.41-0.04,0.62-0.04
		c0.06,0,0.13,0.01,0.19,0.01c0.06,0,0.12-0.01,0.18-0.01h0.57c0.41,0,0.79,0.04,1.14,0.12c0.16-0.01,0.31-0.03,0.48-0.03
		c0.27,0,0.53,0.02,0.77,0.06c0.08,0,0.16-0.02,0.24-0.02c0.07,0,0.13,0.01,0.2,0.01c0.24-0.01,0.48,0,0.71,0.03
		c0.02,0,0.04,0,0.06,0c0.04,0,0.07,0.01,0.11,0.01c0.1,0,0.2-0.01,0.3-0.01h0.36c0.03,0,0.06,0.01,0.09,0.01
		c0.08,0,0.16-0.01,0.24-0.01h0.36c0.03,0,0.06,0.01,0.09,0.01c0.08,0,0.16-0.01,0.24-0.01h0.49c0.04,0,0.07,0.01,0.11,0.01
		c0.03,0,0.06-0.01,0.1-0.01c0.14,0,0.27,0.01,0.4,0.02c0.03,0,0.06-0.01,0.1-0.01c0.38-0.05,0.76-0.05,1.14-0.01
		c0.29-0.06,0.6-0.09,0.91-0.08h0.24c0.03,0,0.06,0.01,0.09,0.01c0.08,0,0.16-0.01,0.24-0.01h0.36c0.21,0,0.41,0.02,0.61,0.04h0.57
		c0.3,0,0.59,0.04,0.88,0.09c0.12,0.01,0.23,0.01,0.35,0.04c0.03,0,0.07,0,0.1,0h0.28c0.01,0,0.03,0,0.04,0c0.04,0,0.08,0,0.12,0
		h0.53c0.01,0,0.02,0,0.03,0c0.09-0.01,0.17-0.03,0.26-0.04c0.27-0.04,0.55-0.04,0.82-0.03c0.18-0.02,0.36-0.02,0.54-0.02h0.2
		c0.23-0.03,0.45-0.05,0.69-0.04c0.15,0,0.3-0.02,0.46-0.03c0.01,0,0.02,0,0.03,0c0.07,0,0.13-0.01,0.2-0.01
		c0.03,0,0.05,0,0.08,0.01c0.07,0,0.14-0.01,0.21-0.01h0.32c0.35,0,0.68,0.05,1.01,0.11c0.29-0.06,0.59-0.08,0.9-0.07h0.65
		c0.28,0,0.55,0.03,0.82,0.08c0.16,0.02,0.31,0.03,0.43,0.05c0.03,0,0.05,0,0.08,0c0.35,0.04,0.7,0.08,1.05,0.08
		c0.01,0,0.03,0,0.04,0c0.04,0,0.08,0,0.12,0h0.36c0.03,0,0.05,0,0.08,0.01c0.07,0,0.14-0.01,0.21-0.01h0.08
		c0.21,0,0.41,0.02,0.61,0.04h0.57c0.23,0,0.45,0.02,0.67,0.04c0.06,0,0.12-0.01,0.18,0h0.28c0.03,0,0.05,0,0.08,0.01
		c0.07,0,0.14-0.01,0.21-0.01h0.24c0.02,0,0.04,0,0.06,0c0.02,0,0.05,0,0.07,0V70.5c-100-4-136,45-136,45c-25,25-29,63-29,63l-6,75
		c-47-2-54-8-54-8c-11,0-12,5-12,5s-5,6-3,20s19,22,19,22c49,33,201,35,201,35h20v-37.8c-0.03,0-0.06,0-0.09-0.01
		c-6.59-0.76-13.35,0.09-19.95-0.62c-0.35,0.07-0.73,0.12-1.13,0.11c-8.01-0.12-16.17-0.32-24.14-1.05
		c-0.41-0.04-0.79-0.13-1.15-0.24c-0.21,0.02-0.42,0.04-0.64,0.04c-0.25,0-0.48-0.02-0.71-0.05c-0.19,0.01-0.37,0.03-0.56,0.01
		c-5.09-0.46-10.32-0.48-15.36-1.14c-0.16-0.02-0.31-0.06-0.47-0.09c-0.45,0.02-0.92,0.01-1.38-0.07c-4.57-0.7-9.2-0.86-13.79-1.41
		c-0.37,0.01-0.75-0.02-1.15-0.09c-0.21-0.04-0.43-0.08-0.64-0.12c-0.66,0.15-1.39,0.17-2.18,0.02c-5.96-1.19-12.15-1.45-18.17-2.39
		c-0.2,0.01-0.4,0.01-0.61-0.01c-3.21-0.33-6.41-0.8-9.61-1.22c-2.88-0.37-6.2-0.49-8.95-1.53c-2.02,0.17-4.12-0.42-6.11-0.75
		c-1.92-0.31-3.83-0.69-5.74-1.05c-0.35-0.02-0.68-0.07-0.99-0.15c-2.73,0.12-5.58-0.84-8.24-1.31c-0.36-0.07-0.7-0.18-1.01-0.33
		c-2.61-0.08-5.24-0.75-7.72-1.4c-0.05-0.01-0.09-0.04-0.15-0.06c-0.04-0.01-0.07-0.01-0.11-0.01c-0.48,0.02-0.98-0.04-1.45-0.16
		c-0.5-0.02-1-0.06-1.53-0.19c-0.35-0.08-0.69-0.21-1.02-0.35c-2.48-0.35-4.93-0.82-7.27-1.38c-0.08-0.02-0.14-0.04-0.22-0.06
		c-1.21-0.22-2.33-0.99-3.06-2.48c-0.26-0.54-0.47-1.03-0.61-1.55c-0.06-0.09-0.13-0.16-0.18-0.26c-0.16-0.39-0.33-0.78-0.49-1.17
		c-0.1-0.22-0.19-0.45-0.25-0.7c-0.06-0.44-0.12-0.89-0.18-1.33c0,0,0,0,0-0.01c-1.43-2.96,0-7.4,4.29-7.4
		c0.65,0,1.24,0.11,1.76,0.29c0.32,0.03,0.62,0.1,0.9,0.18c0.39,0.01,0.78,0.04,1.18,0.12c1.25,0.22,2.51,0.39,3.75,0.69
		C103.38,259.04,103.41,259.06,103.45,259.07z"/>
	<path class="st0" d="M479.05,251.1c0,0-0.99-5-11.99-5.03c0,0-7.02,5.98-54.02,7.86l-5.81-75.01c0,0-3.9-38.01-28.84-63.07
		c0,0-35.88-49.09-135.89-45.34l-0.51,202.45h0.36c0.21,0,0.41,0.02,0.61,0.04h0.57c0.3,0,0.59,0.04,0.88,0.09
		c0.12,0.01,0.23,0.01,0.35,0.04c0.03,0,0.07,0,0.1,0h0.28c0.01,0,0.03,0,0.04,0c0.04,0,0.08,0,0.12,0h0.53c0.01,0,0.02,0,0.03,0
		c0.09-0.01,0.17-0.03,0.26-0.04c0.27-0.04,0.55-0.04,0.82-0.03c0.18-0.02,0.36-0.02,0.54-0.02h0.2c0.23-0.03,0.45-0.05,0.69-0.04
		c0.15,0,0.3-0.02,0.46-0.03c0.01,0,0.02,0,0.03,0c0.07,0,0.13-0.01,0.2-0.01c0.03,0,0.05,0,0.08,0.01c0.07,0,0.14-0.01,0.21-0.01
		h0.32c0.35,0,0.68,0.05,1.01,0.11c0.29-0.06,0.59-0.08,0.9-0.07h0.65c0.28,0,0.55,0.03,0.82,0.08c0.16,0.02,0.31,0.03,0.43,0.05
		c0.03,0,0.05,0,0.08,0c0.35,0.04,0.7,0.08,1.05,0.08c0.01,0,0.03,0,0.04,0c0.04,0,0.08,0,0.12,0h0.36c0.03,0,0.05,0,0.08,0.01
		c0.07,0,0.14-0.01,0.21-0.01h0.08c0.21,0,0.41,0.02,0.61,0.04h0.57c0.23,0,0.45,0.02,0.67,0.04c0.06,0,0.12-0.01,0.18,0h0.28
		c0.03,0,0.05,0,0.08,0.01c0.07,0,0.14-0.01,0.21-0.01h0.24c0.02,0,0.04,0,0.05,0c0.05,0,0.1-0.01,0.15,0h0.28
		c0.15,0,0.29,0.02,0.44,0.03c0.2-0.02,0.41-0.04,0.62-0.03h0.32c0.02,0,0.04,0,0.06,0c0.06,0,0.12-0.01,0.18,0h0.24
		c0.14,0,0.27,0.02,0.41,0.03c0.2-0.02,0.4-0.03,0.6-0.03h0.28c0.01,0,0.02,0,0.03,0c0.03,0,0.06,0,0.09,0h0.37
		c0.16-0.02,0.32-0.04,0.49-0.04c0.03,0,0.06,0.01,0.1,0.01c0.09,0,0.18-0.01,0.27-0.01h0.16c0.2-0.03,0.4-0.05,0.61-0.04
		c0.35,0,0.7-0.04,1.05-0.04c0.24,0,0.48,0.02,0.71,0.05c0.02,0,0.05,0,0.07,0.01c0.47-0.18,0.96-0.28,1.49-0.26h0.36
		c0.37,0,0.73,0.05,1.09,0.13c0.16-0.01,0.33-0.02,0.5-0.01h0.24c0.21,0,0.42,0.02,0.62,0.04c0.15,0,0.29,0.03,0.44,0.04
		c0.11,0,0.21-0.01,0.32-0.01h0.2c0.02,0,0.05,0,0.07,0c0,0,0.01,0,0.01,0c0,0,0.01,0,0.01,0c0.01,0,0.02,0,0.03,0
		c0.09,0,0.18,0.01,0.27,0.02c0.1-0.01,0.2-0.02,0.3-0.02c0.12,0,0.23,0.03,0.35,0.04c0.08-0.01,0.16-0.02,0.25-0.03
		c0.15-0.02,0.3-0.04,0.46-0.04c0,0,0,0,0.01,0c0.07-0.01,0.13-0.01,0.2-0.01c0.01,0,0.01,0,0.02,0c0.02,0,0.04,0,0.06,0h0.16
		c0.21,0,0.42,0.02,0.62,0.04c0.31-0.07,0.63-0.09,0.96-0.08c0.21-0.02,0.42-0.02,0.63-0.03c0.26-0.04,0.52-0.07,0.79-0.06h0.24
		c0.03,0,0.05,0,0.08,0.01c0.07,0,0.14-0.01,0.21-0.01h0.41c0.11,0,0.22,0.01,0.32,0.02c0.16-0.02,0.31-0.04,0.42-0.05
		c0.02,0,0.04,0,0.05-0.01c0.07-0.01,0.14-0.01,0.22-0.01c0.03,0,0.06,0.01,0.09,0.01c0.03,0,0.05-0.01,0.07-0.01
		c0.05,0,0.09,0.01,0.13,0.01c0.09,0,0.18-0.01,0.27-0.01c0.25-0.03,0.5-0.05,0.75-0.06c0.03,0,0.06-0.01,0.09-0.01
		c0.04,0,0.09-0.01,0.13-0.01c0.03,0,0.06,0.01,0.09,0.01c0.08,0,0.16-0.01,0.24-0.01h0.32c0.03,0,0.06,0.01,0.08,0.01
		c0.24-0.03,0.48-0.06,0.73-0.05h0.85c0.43-0.09,0.86-0.13,1.29-0.1c0.14-0.02,0.29-0.04,0.42-0.05c0.08-0.01,0.15-0.01,0.23-0.01
		c0.04,0,0.09,0.01,0.13,0.01c0.04,0,0.08-0.01,0.12-0.01c0.25-0.03,0.5-0.03,0.75-0.02c0.2-0.02,0.4-0.04,0.6-0.05
		c0.06-0.01,0.13-0.01,0.2-0.01c0.04,0,0.08,0.01,0.12,0.01c0.11,0,0.22-0.01,0.33-0.01h0.57c0.03,0,0.06,0.01,0.1,0.01
		c0.09,0,0.18-0.01,0.27-0.01h0.28c0.09,0,0.17,0.01,0.25,0.02c0.07,0,0.12-0.02,0.19-0.02c0.08,0,0.15,0.01,0.23,0.01c0,0,0,0,0,0
		c0.23-0.03,0.46-0.05,0.7-0.05c0.02,0,0.05,0.01,0.07,0.01c0.12-0.01,0.25-0.01,0.38-0.01c0,0,0.01,0,0.01,0
		c0.13-0.02,0.27-0.04,0.39-0.04c0.05,0,0.1,0.01,0.15,0.01c0.14-0.01,0.28-0.02,0.42-0.01h0.57c0.05,0,0.1,0.01,0.15,0.01
		c0.14-0.01,0.28-0.02,0.42-0.01h0.36c0.03,0,0.07,0.01,0.1,0.01c0.05,0,0.09-0.01,0.14-0.01c0.02,0,0.04,0,0.05,0
		c0.04,0,0.07,0,0.11,0h0.04c0.06,0,0.11,0.01,0.17,0.01c0.25-0.04,0.5-0.06,0.76-0.05h0.24c0,0,0.01,0,0.01,0
		c0.12-0.01,0.23-0.04,0.35-0.04c0.01,0,0.02,0,0.03,0c0.29-0.06,0.59-0.09,0.9-0.08h0.08c0.02,0,0.04,0,0.06,0
		c0.06,0,0.12-0.01,0.18,0h0.24c0.01,0,0.02,0,0.03,0c0.12-0.01,0.24-0.04,0.37-0.04c0.16-0.01,0.32-0.04,0.49-0.04
		c0.32,0,0.63,0.03,0.92,0.08c0.41-0.15,0.86-0.26,1.35-0.3c0.11-0.01,0.22-0.01,0.33-0.02c0.04,0,0.08-0.01,0.12-0.01
		c0.01,0,0.03,0,0.04,0c0.03,0,0.05,0,0.08,0h0.08c0.02,0,0.03,0,0.05,0c0.01,0,0.01,0,0.02,0c0.23-0.03,0.46-0.05,0.71-0.04h0.61
		c0.07,0,0.13,0.01,0.19,0.01c0.13-0.02,0.26-0.05,0.39-0.06c0.28-0.05,0.58-0.08,0.88-0.07h0.32c0.03,0,0.05,0.01,0.08,0.01
		c0.07-0.01,0.14-0.02,0.22-0.02c0.24-0.04,0.49-0.07,0.74-0.06c0.23-0.03,0.46-0.05,0.71-0.04h0.16c0.07,0,0.14,0.01,0.22,0.01
		c0.36-0.06,0.72-0.1,1.09-0.08c0.01,0,0.03-0.01,0.04-0.01c0.06-0.01,0.13,0,0.19-0.01c0.04,0,0.08-0.02,0.12-0.02
		c0.11-0.01,0.22-0.01,0.33-0.02c0.04,0,0.08-0.01,0.12-0.01c0.01,0,0.03,0,0.04,0c0.03,0,0.05,0,0.08,0c0.01,0,0.02,0,0.03,0
		c0.35-0.09,0.72-0.13,1.1-0.12h0.24c0.01,0,0.03,0,0.04,0c0.04,0,0.08,0,0.12,0h0.53c0.03,0,0.06,0.01,0.1,0.01
		c0.09,0,0.18-0.01,0.27-0.01h0.57c0.1-0.01,0.2-0.04,0.31-0.04c0.25-0.05,0.5-0.09,0.75-0.1c0.01,0,0.03-0.01,0.04-0.01
		c0.11-0.03,0.23-0.05,0.34-0.07c0.1-0.03,0.19-0.04,0.29-0.06c0.02,0,0.05-0.01,0.07-0.01c0.19-0.03,0.39-0.07,0.59-0.08
		c0.24-0.04,0.48-0.06,0.73-0.05c0,0,0.01,0,0.01,0c0.3-0.05,0.61-0.07,0.91-0.07c0.27-0.03,0.55-0.05,0.82-0.05
		c0.03,0,0.06,0.01,0.1,0.01c0.09,0,0.18-0.01,0.27-0.01c0.08,0,0.16-0.01,0.24-0.01c0.01,0,0.02,0,0.03,0
		c0.41-0.08,0.82-0.11,1.23-0.09c0.12-0.01,0.23-0.03,0.35-0.03c0.25-0.05,0.5-0.08,0.75-0.09c0.01,0,0.01,0,0.02,0
		c0.23-0.03,0.47-0.05,0.71-0.05c0.03,0,0.05,0.01,0.08,0.01c0.21-0.03,0.43-0.07,0.64-0.09c0.06,0,0.12,0,0.19,0
		c0.1-0.01,0.19-0.03,0.29-0.04c0.06-0.01,0.13,0,0.19-0.01c0.22-0.03,0.45-0.05,0.68-0.04h0.2c0.02,0,0.04,0,0.07,0
		c0.06,0,0.12-0.01,0.18,0h0.12c0.05,0,0.11,0.01,0.16,0.01c0.16-0.02,0.31-0.04,0.47-0.05c0,0,0.01,0,0.01,0c0,0,0.01,0,0.01,0
		c0.01,0,0.02,0,0.03,0c0.01,0,0.03,0,0.04,0c0.04,0,0.08,0,0.12,0c0.03,0,0.07-0.01,0.1-0.01c0.01,0,0.03,0,0.04,0
		c0.1-0.01,0.2-0.03,0.31-0.03c0.03,0,0.06,0.01,0.09,0.01c0.01,0,0.03,0,0.04,0c0.06-0.01,0.11-0.02,0.16-0.03
		c0.21-0.03,0.42-0.05,0.63-0.05c0,0,0.01,0,0.01,0c0.01,0,0.02,0,0.03,0c0.01,0,0.02,0,0.03,0c0.03,0,0.06,0,0.09,0
		c0.09,0,0.17-0.01,0.26-0.02c0.1-0.01,0.21-0.02,0.31-0.02c0.04,0,0.08-0.01,0.11-0.01c0.01,0,0.03,0,0.04,0c0.04,0,0.08,0,0.12,0
		h0.28c0,0,0.01,0,0.01,0c0.22-0.05,0.43-0.1,0.66-0.11c0.24-0.04,0.49-0.06,0.75-0.05h0.28c0.03,0,0.05,0,0.08,0.01
		c0.07,0,0.14-0.01,0.21-0.01h0.32c0.05,0,0.11,0.01,0.16,0.01c0.06,0,0.11-0.01,0.17-0.01c0.07-0.01,0.14-0.03,0.21-0.03
		c0.13-0.02,0.26-0.05,0.39-0.07c0.28-0.08,0.57-0.12,0.85-0.15c0.25-0.06,0.51-0.1,0.77-0.1c0.14-0.02,0.29-0.03,0.43-0.03
		c0.05-0.01,0.11-0.02,0.16-0.02c0.02,0,0.05,0,0.07,0c0.03,0,0.06-0.01,0.09,0h0.24c0.15,0,0.29,0.02,0.43,0.03
		c0.04-0.01,0.08-0.02,0.12-0.02c0.33-0.09,0.66-0.16,1.01-0.16c0.29-0.06,0.59-0.09,0.88-0.11c0.3-0.08,0.62-0.13,0.94-0.14
		c0.12-0.02,0.25-0.03,0.37-0.05c0.61-0.28,1.31-0.45,2.12-0.45c0.34,0,0.66,0.03,0.97,0.09c0.56-0.27,1.15-0.39,1.79-0.37
		c0.3,0,0.6-0.04,0.89-0.08c0.12,0,0.24,0.02,0.35,0.02c0.19-0.02,0.38-0.03,0.58-0.02c0.06,0,0.13-0.01,0.19-0.01
		c0.42-0.08,0.84-0.11,1.26-0.09c0.06-0.01,0.12-0.02,0.18-0.03c0.01,0,0.02-0.01,0.03-0.01c0.05-0.01,0.1-0.01,0.15-0.02
		c0.04-0.01,0.07-0.01,0.11-0.01c0.32-0.07,0.64-0.12,0.96-0.13c0.04-0.01,0.08-0.01,0.11-0.02c0.02,0,0.04,0,0.07,0
		c0.22,0,0.43,0.01,0.65,0.04c0.13-0.04,0.26-0.07,0.39-0.11c0.41-0.11,0.81-0.15,1.22-0.15c0.14-0.02,0.27-0.05,0.41-0.06
		c0.36-0.08,0.73-0.12,1.09-0.12c0.42-0.09,0.85-0.14,1.27-0.12c0.35-0.09,0.7-0.14,1.04-0.16c0.24-0.04,0.49-0.06,0.74-0.06
		c0.31-0.09,0.63-0.15,0.96-0.16c0.11-0.02,0.22-0.04,0.33-0.05c0.2-0.04,0.4-0.08,0.59-0.14c0.35-0.09,0.7-0.14,1.05-0.16
		c0.09-0.01,0.19-0.03,0.28-0.04c0.18-0.05,0.36-0.08,0.54-0.11c0.34-0.08,0.7-0.12,1.07-0.11c0.34-0.04,0.68-0.08,1.01-0.12
		c0.04,0,0.09,0.01,0.13,0.01c0.07-0.02,0.13-0.06,0.2-0.07c0.49-0.1,0.98-0.18,1.48-0.25c0.04-0.01,0.07-0.03,0.1-0.04
		c0.64-0.13,1.29-0.25,1.94-0.26c0.06,0,0.11,0.01,0.17,0.01c0.41-0.09,0.82-0.13,1.23-0.12c0.13-0.01,0.25-0.01,0.38-0.01h0.37
		c0.08-0.01,0.16-0.03,0.25-0.03c0.07-0.01,0.14,0,0.2-0.01c0.04-0.01,0.08-0.02,0.12-0.02c0.23-0.06,0.47-0.11,0.7-0.14
		c0.35-0.08,0.69-0.16,1.05-0.23c0.32-0.08,0.63-0.13,0.95-0.15c0.17-0.02,0.32-0.05,0.5-0.06c0.21-0.09,0.43-0.18,0.67-0.23
		c2.06-0.41,4.22-0.48,6.22-0.78c0.12-0.04,0.23-0.1,0.35-0.13c1.21-0.33,2.37-0.66,3.64-0.67c0.02,0,0.04,0.01,0.07,0.01
		c0.06-0.01,0.12-0.03,0.18-0.04c0.61-0.28,1.31-0.45,2.13-0.45c0.01,0,0.02,0,0.03,0c1.94-0.74,4.22-0.94,6.36-1.11
		c1.51-0.38,3.01-0.76,4.53-0.99c0.33-0.05,0.66-0.08,0.99-0.08c0.35-0.21,0.72-0.39,1.1-0.53c1.1-0.38,2.25-0.48,3.39-0.69
		c0,0.01,0,0.01,0,0.02c0.43-0.09,0.87-0.16,1.33-0.2c0.16-0.01,0.31-0.01,0.46,0c0,0,0.01,0,0.01-0.01
		c1.15-0.45,2.38-0.49,3.57-0.77c0.17-0.04,0.34-0.05,0.51-0.07c0.26-0.06,0.52-0.1,0.78-0.12c0.7-0.42,1.54-0.7,2.56-0.7
		c3.81,0,5.36,3.5,4.67,6.36c-0.08,0.89-0.36,1.77-0.78,2.55c-0.11,0.84-0.29,1.64-0.75,2.42c-0.02,0.03-0.04,0.06-0.06,0.08
		c-0.22,1.33-0.9,2.57-2.06,3.32c-0.62,0.45-1.37,0.78-2.28,0.87c-0.1,0.02-0.19,0.05-0.3,0.07c-0.3,0.08-0.6,0.14-0.94,0.17
		c-0.46,0.33-0.96,0.58-1.51,0.71c-0.62,0.16-1.3,0.28-1.96,0.29c-0.06,0.02-0.12,0.05-0.18,0.07c-0.69,0.26-1.43,0.38-2.17,0.43
		c-0.47,0.15-0.94,0.29-1.42,0.38c-0.47,0.19-1,0.3-1.58,0.34c-0.5,0.21-1.02,0.37-1.56,0.45c-0.36,0.13-0.72,0.21-1.09,0.24
		c-0.33,0.14-0.68,0.26-1.07,0.33c-0.01,0-0.02,0.01-0.03,0.01c0,0-0.01,0-0.01,0c-0.01,0-0.02,0-0.03,0.01
		c-0.11,0.02-0.22,0.04-0.34,0.06c-0.03,0.01-0.05,0.02-0.07,0.03c-0.17,0.06-0.34,0.08-0.51,0.12c-0.22,0.09-0.45,0.17-0.68,0.22
		c-0.02,0.01-0.05,0.01-0.07,0.01c-0.16,0.06-0.31,0.12-0.48,0.17c-0.15,0.02-0.29,0.04-0.44,0.06c-0.14,0.03-0.28,0.07-0.41,0.1
		c-0.17,0.05-0.34,0.08-0.51,0.1c-0.06,0.02-0.12,0.04-0.18,0.06c-0.26,0.07-0.52,0.11-0.78,0.14c-0.09,0.03-0.18,0.07-0.27,0.1
		c-0.24,0.07-0.49,0.11-0.74,0.14c-0.28,0.07-0.56,0.11-0.86,0.12c-0.11,0.02-0.23,0.03-0.34,0.05c-0.05,0-0.1-0.01-0.16-0.01
		c-0.13,0.01-0.25,0.05-0.39,0.05c-0.25,0.06-0.5,0.1-0.76,0.12c-0.22,0.06-0.44,0.1-0.66,0.13c-0.2,0.04-0.41,0.07-0.71,0.1
		c-0.14,0.02-0.28,0.04-0.41,0.05c-0.02,0.01-0.04,0.01-0.06,0.02c-0.16,0.05-0.32,0.08-0.49,0.11c-0.04,0.01-0.07,0.03-0.1,0.04
		c-0.12,0.04-0.24,0.08-0.36,0.12c-0.18,0.05-0.36,0.08-0.55,0.11c-0.08,0.02-0.14,0.05-0.22,0.06c-0.29,0.08-0.58,0.14-0.89,0.15
		c-0.24,0.05-0.47,0.1-0.74,0.12c-0.25,0.04-0.51,0.07-0.78,0.06c-0.05,0-0.09,0.02-0.14,0.02c-0.09,0.02-0.18,0.05-0.27,0.06
		c-0.03,0.01-0.06,0.02-0.09,0.03c-0.01,0-0.02,0.01-0.04,0.02c-0.02,0.01-0.04,0.01-0.06,0.02c-0.07,0.02-0.15,0.06-0.22,0.08
		c-0.02,0-0.05,0.01-0.07,0.01c-0.14,0.04-0.3,0.04-0.45,0.06c-0.26,0.07-0.52,0.13-0.82,0.16c-0.27,0.08-0.55,0.12-0.84,0.14
		c-0.04,0.01-0.07,0.03-0.12,0.04c-0.61,0.29-1.33,0.45-2.16,0.45c-0.22,0-0.43-0.01-0.64-0.04c-0.59,0.25-1.27,0.4-2.04,0.4
		c-0.08,0-0.15-0.01-0.23-0.01c-0.02,0-0.04,0-0.05,0.01c-0.28,0.09-0.56,0.18-0.88,0.22c-0.33,0.1-0.68,0.17-1.06,0.2
		c0,0,0,0-0.01,0c0,0,0,0,0,0c0,0,0,0-0.01,0c0,0-0.01,0-0.01,0c-0.03,0-0.61,0.08-1,0.14c-0.24,0.07-0.49,0.13-0.74,0.16
		c-0.48,0.15-1,0.25-1.58,0.25c-0.01,0-0.01,0-0.02,0c-0.21,0.04-0.42,0.08-0.64,0.08c-0.04,0.01-0.08,0.02-0.13,0.03
		c-0.32,0.1-0.67,0.17-1.04,0.2c-0.38,0.11-0.79,0.2-1.24,0.21c-0.41,0.11-0.86,0.17-1.34,0.17c-0.12,0-0.24-0.01-0.36-0.02
		c-0.31,0.08-0.61,0.17-0.92,0.23c-0.83,0.17-1.53,0.23-2.23,0.23c-0.41,0.06-0.83,0.1-1.24,0.12c-0.55,0.21-1.16,0.33-1.86,0.33
		c-0.11,0-0.22-0.01-0.33-0.02c-0.11,0.02-0.21,0.04-0.32,0.06c-0.12,0.02-0.24,0.05-0.36,0.07c-1.22,0.23-2.46,0.44-3.68,0.48
		c-0.77,0.19-1.55,0.31-2.3,0.33c-0.1,0-0.19-0.01-0.28-0.01c-4.95,1.06-10.11,1.27-15.15,1.75c-0.2,0.02-0.4,0.02-0.6,0
		c-4.93,0.65-9.85,0.95-14.81,1.37c-0.13,0.01-0.25,0.01-0.38,0.01c-0.39,0.11-0.8,0.2-1.22,0.23c-3.35,0.26-6.74,0.34-10.09,0.53
		c-0.06,0-0.12,0-0.18,0c-0.52,0.19-1.11,0.3-1.77,0.3c-1.99,0-3.97,0.1-5.96,0.19c-1.63,0.07-3.62-0.2-5.2,0.06
		c-0.36,0.06-0.72,0.09-1.08,0.09c-0.31,0.08-0.64,0.15-1,0.19c-0.63,0.09-1.27,0.13-1.91,0.12c-0.62,0.01-1.18-0.08-1.68-0.23
		c-0.51,0.17-1.07,0.27-1.71,0.27c-0.13,0-0.24-0.02-0.36-0.03c-0.3,0.05-0.62,0.09-0.96,0.09c-0.22,0-0.42-0.02-0.62-0.04
		c-0.04,0-0.07,0-0.11,0h-0.02c-0.08,0-0.16-0.01-0.23-0.02c-0.1,0.01-0.2,0.02-0.31,0.02c-0.4,0-0.77-0.04-1.12-0.11
		c-1.89,0.1-3.77,0.21-5.61,0.23c-0.36,0-0.7-0.03-1.02-0.08c-0.01,0-0.02,0-0.03,0c-1,0.03-2,0.03-2.99,0.02
		c-0.63,0.05-1.26,0.11-1.9,0.16c-1.68,0.14-3.35-0.04-5.02-0.14c-0.04,0-0.07-0.01-0.11-0.02c-0.67,0.31-1.5,0.45-2.47,0.34
		c-5.43-0.63-10.98-0.16-16.46-0.36l-0.1,38.17l20,0.05c0,0,152-1.62,201.09-34.49c0,0,17.02-7.96,19.06-21.95
		S479.05,251.1,479.05,251.1z"/>
	<line class="st1" x1="-28" y1="-15" x2="-28" y2="241"/>
	<line class="st2" x1="93.5" y1="272.5" x2="87.5" y2="255.5"/>
	<path class="st2" d="M407.5,272.5c0,0-121,39-314,0"/>
	<line class="st2" x1="412.5" y1="255.5" x2="407.5" y2="272.5"/>
	<path class="st2" d="M87.5,255.5c0,0,165,39,325,0"/>
</g>
<g id="Calque_3" class="st3">
	<path class="st4" d="M88.5,254.5c0,0,169,38,324,0"/>
	<path class="st4" d="M30,250c0,0,229.51,87.32,440,0"/>
	<path class="st4" d="M88.73,256.49c0,0,169,38,324,0"/>
	<path class="st4" d="M88.83,259.14c0,0,169,38,324,0"/>
	<path class="st4" d="M88.83,262.53c0,0,169,38,324,0"/>
	<path class="st4" d="M89,265.81c0,0,169,38,324,0"/>
	<g class="st5">
		<g>
			<path d="M300.41,342.53c0.14,0,0.27,0,0.41,0c0.21,0.01,0.4-0.04,0.58-0.13c0.19-0.06,0.35-0.16,0.48-0.31
				c0.15-0.14,0.25-0.3,0.31-0.48c0.09-0.18,0.14-0.37,0.13-0.58c-0.02-0.13-0.04-0.27-0.05-0.4c-0.07-0.25-0.2-0.47-0.39-0.66
				c-0.1-0.08-0.2-0.16-0.3-0.23c-0.23-0.14-0.49-0.2-0.76-0.2c-0.14,0-0.27,0-0.41,0c-0.21-0.01-0.4,0.04-0.58,0.13
				c-0.19,0.06-0.35,0.16-0.48,0.31c-0.15,0.14-0.25,0.3-0.31,0.48c-0.09,0.18-0.14,0.37-0.13,0.58c0.02,0.13,0.04,0.27,0.05,0.4
				c0.07,0.25,0.2,0.47,0.39,0.66c0.1,0.08,0.2,0.16,0.3,0.23C299.88,342.46,300.13,342.53,300.41,342.53L300.41,342.53z"/>
		</g>
	</g>
	<g class="st5">
		<g>
			<path class="st6" d="M304.37,341.67c3.86,0,3.87-6,0-6C300.51,335.67,300.5,341.67,304.37,341.67L304.37,341.67z"/>
		</g>
	</g>
	<g class="st5">
		<g>
			<path class="st6" d="M352.16,336.87c3.86,0,3.87-6,0-6C348.29,330.87,348.29,336.87,352.16,336.87L352.16,336.87z"/>
		</g>
	</g>
	<g class="st5">
		<g>
			<path class="st6" d="M394.45,457.65c1.93,0,1.93-3,0-3C392.52,454.65,392.51,457.65,394.45,457.65L394.45,457.65z"/>
		</g>
	</g>
	<g class="st5">
		<g>
			<path class="st6" d="M394.57,457.64c1.93,0,1.93-3,0-3C392.64,454.64,392.64,457.64,394.57,457.64L394.57,457.64z"/>
		</g>
	</g>
	<g class="st5">
		<g>
			<path d="M394.57,366.22c1.93,0,1.93-3,0-3C392.64,363.22,392.64,366.22,394.57,366.22L394.57,366.22z"/>
		</g>
	</g>
	<g class="st5">
		<g>
			<path d="M394.6,366.31c1.93,0,1.93-3,0-3C392.67,363.31,392.66,366.31,394.6,366.31L394.6,366.31z"/>
		</g>
	</g>
	<g class="st5">
		<g>
			<path d="M394.75,365.89c1.93,0,1.93-3,0-3C392.82,362.89,392.81,365.89,394.75,365.89L394.75,365.89z"/>
		</g>
	</g>
	<g class="st5">
		<g>
			<path d="M394.71,366.29c1.93,0,1.93-3,0-3C392.78,363.29,392.78,366.29,394.71,366.29L394.71,366.29z"/>
		</g>
	</g>
	<g class="st5">
		<g>
			<path d="M394.57,366.67c1.93,0,1.93-3,0-3C392.64,363.67,392.64,366.67,394.57,366.67L394.57,366.67z"/>
		</g>
	</g>
	<g class="st5">
		<g>
			<path d="M394.61,366.71c1.93,0,1.93-3,0-3C392.68,363.71,392.67,366.71,394.61,366.71L394.61,366.71z"/>
		</g>
	</g>
	<g class="st5">
		<g>
			<path d="M394.59,366.76c1.93,0,1.93-3,0-3C392.66,363.76,392.65,366.76,394.59,366.76L394.59,366.76z"/>
		</g>
	</g>
	<g class="st5">
		<g>
			<path d="M394.61,366.77c1.93,0,1.93-3,0-3C392.68,363.77,392.67,366.77,394.61,366.77L394.61,366.77z"/>
		</g>
	</g>
	<g class="st5">
		<g>
			<path class="st6" d="M396.05,365.67c0.03-0.15,0.06-0.3,0.09-0.45c0.04-0.2,0.07-0.4,0.08-0.6c0.02-0.2-0.03-0.42-0.06-0.62
				c-0.05-0.2-0.14-0.37-0.27-0.51c-0.11-0.16-0.25-0.29-0.42-0.39c-0.17-0.11-0.36-0.17-0.56-0.18c-0.2-0.04-0.4-0.04-0.6,0.03
				c-0.12,0.05-0.24,0.1-0.36,0.15c-0.23,0.13-0.4,0.31-0.54,0.54c-0.05,0.12-0.1,0.24-0.15,0.36c-0.07,0.27-0.07,0.53,0,0.8
				c0,0.01,0,0.02,0.01,0.03c-0.02-0.13-0.04-0.27-0.05-0.4c0.01,0.09,0.01,0.18-0.01,0.27c0.02-0.13,0.04-0.27,0.05-0.4
				c-0.03,0.19-0.07,0.38-0.11,0.57c-0.06,0.2-0.07,0.4-0.03,0.6c0.01,0.2,0.07,0.39,0.18,0.56c0.09,0.17,0.22,0.32,0.39,0.42
				c0.14,0.13,0.31,0.22,0.51,0.27c0.13,0.02,0.27,0.04,0.4,0.05c0.27,0,0.52-0.07,0.76-0.2c0.1-0.08,0.2-0.16,0.3-0.23
				C395.85,366.14,395.98,365.92,396.05,365.67L396.05,365.67z"/>
		</g>
	</g>
	<g class="st5">
		<g>
			<path d="M394.79,365.74c1.93,0,1.93-3,0-3C392.86,362.74,392.86,365.74,394.79,365.74L394.79,365.74z"/>
		</g>
	</g>
	<g class="st5">
		<g>
			<path d="M394.8,365.74c1.93,0,1.93-3,0-3C392.87,362.74,392.87,365.74,394.8,365.74L394.8,365.74z"/>
		</g>
	</g>
	<g class="st5">
		<g>
			<path d="M394.81,365.74c1.93,0,1.93-3,0-3C392.88,362.74,392.87,365.74,394.81,365.74L394.81,365.74z"/>
		</g>
	</g>
	<g class="st5">
		<g>
			<path class="st6" d="M394.83,365.7c1.93,0,1.93-3,0-3C392.9,362.7,392.9,365.7,394.83,365.7L394.83,365.7z"/>
		</g>
	</g>
	<g class="st5">
		<g>
			<path class="st6" d="M394.82,365.74c1.93,0,1.93-3,0-3C392.89,362.74,392.89,365.74,394.82,365.74L394.82,365.74z"/>
		</g>
	</g>
</g>
<g id="Calque_4">
	<ellipse class="st1" cx="121.5" cy="425" rx="45" ry="42.5"/>
	<path class="st7" d="M304.67,338.47c0,0-24.3,15.97-14.86,46.31c0,0,7.93,26.21,37.68,29.47c0,0,32.14,3.92,46.1-24.34
		c0,0,9.15-19.17-0.53-36.17c0,0-6.18-13.91-21.13-19.97"/>
	<circle class="st8" cx="386.5" cy="360.5" r="8.5"/>
	<line class="st9" x1="394.5" y1="456" x2="394.5" y2="356"/>
</g>
</svg>
